<svg aria-hidden="true" style="position: absolute; width: 0; height: 0; overflow: hidden;" version="1.1" xmlns="http://www.w3.org/2000/svg" xmlns:xlink="http://www.w3.org/1999/xlink">
<defs>
<symbol id="icon-github" viewBox="0 0 32 32">
    <path d="M16 0c-8.84 0-16 7.16-16 16 0 7.080 4.58 13.060 10.94 15.18 0.8 0.14 1.1-0.34 1.1-0.76 0-0.38-0.020-1.64-0.020-2.98-4.020 0.74-5.060-0.98-5.38-1.88-0.18-0.46-0.96-1.88-1.64-2.26-0.56-0.3-1.36-1.040-0.020-1.060 1.26-0.020 2.16 1.16 2.46 1.64 1.44 2.42 3.74 1.74 4.66 1.32 0.14-1.040 0.56-1.74 1.020-2.14-3.56-0.4-7.28-1.78-7.28-7.9 0-1.74 0.62-3.18 1.64-4.3-0.16-0.4-0.72-2.040 0.16-4.24 0 0 1.34-0.42 4.4 1.64 1.28-0.36 2.64-0.54 4-0.54s2.72 0.18 4 0.54c3.060-2.080 4.4-1.64 4.4-1.64 0.88 2.2 0.32 3.84 0.16 4.24 1.020 1.12 1.64 2.54 1.64 4.3 0 6.14-3.74 7.5-7.3 7.9 0.58 0.5 1.080 1.46 1.080 2.96 0 2.14-0.020 3.86-0.020 4.4 0 0.42 0.3 0.92 1.1 0.76 3.176-1.072 5.936-3.114 7.892-5.837s3.007-5.991 3.008-9.343c0-8.84-7.16-16-16-16z"></path>
</symbol>
<symbol id="icon-linkedin" viewBox="0 0 32 32">
    <path d="M16 0.64c-8.483 0-15.36 6.877-15.36 15.36s6.877 15.36 15.36 15.36c8.483 0 15.36-6.877 15.36-15.36s-6.877-15.36-15.36-15.36zM12.24 22.366h-3.11v-10.010h3.11v10.010zM10.666 11.128c-0.982 0-1.618-0.696-1.618-1.557 0-0.878 0.654-1.554 1.658-1.554s1.618 0.675 1.637 1.554c0 0.861-0.634 1.557-1.677 1.557zM23.6 22.366h-3.11v-5.547c0-1.291-0.451-2.168-1.576-2.168-0.859 0-1.37 0.594-1.595 1.165-0.083 0.203-0.104 0.491-0.104 0.778v5.771h-3.112v-6.816c0-1.25-0.040-2.294-0.082-3.194h2.702l0.142 1.39h0.062c0.41-0.653 1.413-1.616 3.091-1.616 2.046 0 3.581 1.371 3.581 4.318v5.918z"></path>
</symbol>
<symbol id="icon-hamburger-menu" viewBox="0 0 32 32">
    <path d="M0 4.8V8h32V4.8zm0 9.6v3.2h32v-3.2zM0 24v3.2h32V24z"/></symbol>
<symbol id="icon-envelope" viewBox="0 0 43 32">
    <path d="M38.667 0H4C1.795 0 0 1.795 0 4v24c0 2.205 1.795 4 4 4h34.667c2.205 0 4-1.795 4-4V4c0-2.205-1.795-4-4-4zm0 2.667c.181 0 .355.037.512.104L21.334 18.238 3.489 2.771c.151-.065.327-.104.512-.104h34.667zm0 26.666H4A1.333 1.333 0 0 1 2.667 28V5.587l17.792 15.421c.233.203.539.327.875.327s.642-.124.876-.328l-.002.001L40 5.587V28c0 .736-.597 1.333-1.333 1.333z"/>
</symbol>
<symbol id="icon-smartphone" viewBox="0 0 20 32">
    <path d="M17 0H3C1.346 0 0 1.346 0 3v26c0 1.654 1.346 3 3 3h14c1.654 0 3-1.346 3-3V3c0-1.654-1.346-3-3-3zM3 2h14a1 1 0 0 1 1 1v21H2V3a1 1 0 0 1 1-1zm14 28H3a1 1 0 0 1-1-1v-3h16v3a1 1 0 0 1-1 1z"/>
    <path fill="#757575" style="fill:var(--color5, #757575)" d="M4.708 27.478a.889.889 0 0 1 .001 1.319l-.001.001a1.048 1.048 0 0 1-1.417 0l.001.001a.889.889 0 0 1-.001-1.319l.001-.001a1.048 1.048 0 0 1 1.417 0l-.001-.001z"/>
</symbol>
<symbol id="icon-close-menu" viewBox="0 0 32 32">
    <path d="M31.439 3.166l-3.166-3.166-12.554 12.552-12.552-12.552-3.166 3.166 12.552 12.552-12.552 12.554 3.166 3.166 12.552-12.554 12.554 12.554 3.166-3.166-12.554-12.554 12.554-12.552z"></path>
</symbol>
<symbol id="icon-office" viewBox="0 0 16 12">
    <path d="M3.333 1.5v9h4V8.75h1.334v1.75h4v-9H3.333Zm1.334 1H6v1H4.667v-1Zm2.666 0h1.334v1H7.333v-1ZM10 2.5h1.333v1H10v-1Zm-5.333 2H6v1H4.667v-1Zm2.666 0h1.334v1H7.333v-1ZM10 4.5h1.333v1H10v-1Zm-5.333 2H6v1H4.667v-1Zm2.666 0h1.334v1H7.333v-1ZM10 6.5h1.333v1H10v-1Zm-5.333 2H6v1H4.667v-1ZM10 8.5h1.333v1H10v-1Z" fill="#A7A7A7"/>
</symbol>
<symbol id="icon-location" viewBox="0 0 16 12">
    <path d="M8 6.75c-.494 0-.978-.11-1.389-.316-.411-.206-.731-.499-.92-.841a1.445 1.445 0 0 1-.143-1.084c.096-.364.335-.698.684-.96.35-.262.795-.44 1.28-.513a3.281 3.281 0 0 1 1.445.107c.457.142.847.382 1.122.69.274.309.421.671.421 1.042 0 .497-.264.974-.733 1.325-.469.352-1.104.55-1.767.55Zm0-3c-.297 0-.587.066-.833.19-.247.123-.44.299-.553.504a.867.867 0 0 0-.085.65c.058.219.2.42.41.576.21.158.477.265.768.308.291.044.593.022.867-.064.274-.085.508-.229.673-.414a.939.939 0 0 0 .253-.625c0-.298-.159-.584-.44-.795A1.786 1.786 0 0 0 8 3.75Z" fill="#A7A7A7"/>
    <path d="M8 11.25 3.782 7.52a14.363 14.363 0 0 1-.174-.17c-.72-.712-1.11-1.581-1.108-2.475 0-1.094.58-2.143 1.61-2.917C5.143 1.185 6.542.75 8 .75s2.858.435 3.89 1.208c1.03.774 1.61 1.823 1.61 2.917.002.893-.387 1.762-1.107 2.474l-.001.001s-.15.148-.172.168L8 11.25ZM4.406 6.898c.001 0 .117.116.144.14L8 10.091l3.455-3.057c.022-.02.139-.137.14-.137.588-.582.906-1.292.905-2.022 0-.895-.474-1.754-1.318-2.386C10.338 1.856 9.193 1.5 8 1.5c-1.193 0-2.338.356-3.182.989C3.974 3.12 3.5 3.979 3.5 4.875c-.001.73.317 1.441.907 2.023h-.001Z" fill="#A7A7A7"/>
</symbol>
<symbol id="icon-calendar" viewBox="0 0 16 12">
    <path d="M5.333 6.5a.793.793 0 0 1-.471-.146A.447.447 0 0 1 4.667 6c0-.133.07-.26.195-.354a.793.793 0 0 1 .471-.146c.177 0 .347.053.472.146C5.93 5.74 6 5.867 6 6c0 .133-.07.26-.195.354a.793.793 0 0 1-.472.146Zm0 2a.793.793 0 0 1-.471-.146A.447.447 0 0 1 4.667 8c0-.133.07-.26.195-.354a.793.793 0 0 1 .471-.146c.177 0 .347.053.472.146C5.93 7.74 6 7.867 6 8c0 .133-.07.26-.195.354a.793.793 0 0 1-.472.146Zm2-.5c0 .133.07.26.196.354A.793.793 0 0 0 8 8.5a.793.793 0 0 0 .471-.146A.447.447 0 0 0 8.667 8c0-.133-.07-.26-.196-.354A.793.793 0 0 0 8 7.5a.793.793 0 0 0-.471.146.447.447 0 0 0-.196.354Zm3.334.5a.793.793 0 0 1-.472-.146A.447.447 0 0 1 10 8c0-.133.07-.26.195-.354a.793.793 0 0 1 .472-.146c.176 0 .346.053.471.146.125.094.195.221.195.354 0 .133-.07.26-.195.354a.793.793 0 0 1-.471.146ZM7.333 6c0 .133.07.26.196.354A.793.793 0 0 0 8 6.5a.793.793 0 0 0 .471-.146A.447.447 0 0 0 8.667 6c0-.133-.07-.26-.196-.354A.793.793 0 0 0 8 5.5a.793.793 0 0 0-.471.146.447.447 0 0 0-.196.354Zm3.334.5a.793.793 0 0 1-.472-.146A.447.447 0 0 1 10 6c0-.133.07-.26.195-.354a.793.793 0 0 1 .472-.146c.176 0 .346.053.471.146.125.094.195.221.195.354 0 .133-.07.26-.195.354a.793.793 0 0 1-.471.146Zm-5.334-3a.793.793 0 0 0-.471.146.447.447 0 0 0-.195.354c0 .133.07.26.195.354a.793.793 0 0 0 .471.146h5.334a.793.793 0 0 0 .471-.146.447.447 0 0 0 .195-.354c0-.133-.07-.26-.195-.354a.793.793 0 0 0-.471-.146H5.333Z" fill="#A7A7A7"/>
    <path fill-rule="evenodd" clip-rule="evenodd" d="M4 1.5c-.53 0-1.04.158-1.414.44C2.21 2.22 2 2.601 2 3v6c0 .398.21.78.586 1.06.375.282.884.44 1.414.44h8c.53 0 1.04-.158 1.414-.44C13.79 9.78 14 9.399 14 9V3c0-.398-.21-.78-.586-1.06-.375-.282-.884-.44-1.414-.44H4Zm8 1H4a.793.793 0 0 0-.471.146.447.447 0 0 0-.196.354v6c0 .133.07.26.196.354A.793.793 0 0 0 4 9.5h8a.793.793 0 0 0 .471-.146.447.447 0 0 0 .196-.354V3c0-.133-.07-.26-.196-.354A.793.793 0 0 0 12 2.5Z" fill="#A7A7A7"/>
</symbol>
<symbol id="icon-cv" viewBox="0 0 32 32">
    <path d="M.6.6c-.85.85-.85 29.95 0 30.8s24.45.85 25.3 0c.7-.7.8-6.4.1-6.4-.55 0-.9 1.35-1.1 4l-.15 1.75h-23V1.25h23l.25 3.7c.15 2.35.5 3.8.9 3.95.85.25.85-7.45 0-8.3S1.45-.25.6.6z"/>
    <path d="M10.2 4.45c-4.05 2.45-3.1 8.5 1.55 10.05 2.85.95 6.45-1.25 7.05-4.25.9-4.85-4.35-8.4-8.6-5.8zm6.2 1.65c1.05 1.05 1.6 4.25.8 5.05-.7.7-2-.8-1.8-2.15.25-1.9-1.6-3.3-3.15-2.3-.6.4-1 1.2-1 2.1 0 1.4-1.1 2.85-1.85 2.4-.25-.15-.4-1.1-.4-2.15 0-3.95 4.4-5.7 7.4-2.95zm-2.5 2.5c-.1.65-.35 1.15-.65 1.15-.25 0-.55-.5-.65-1.15-.1-.75.1-1.1.65-1.1s.75.35.65 1.1zm1.5 3.55c.9.7-.15 1.35-2.15 1.35s-3.05-.65-2.15-1.35c1.4-1.15 2.85-1.15 4.3 0zm12.1-3.4c-.35.45-2.4 3.8-4.5 7.45-2.95 5.1-3.9 7.25-4.15 9.2-.15 1.45-.1 2.7.2 2.85.25.2 1.35-.3 2.45-1.1 1.55-1.05 3.05-3.2 6.35-8.85 3.75-6.45 4.25-7.6 3.85-8.75-.55-1.6-3.15-2.1-4.2-.8zm2.9 1.45c.3 1.45-.65 2-1.9 1.15-1-.7-1-.8-.2-1.55.95-1 1.9-.8 2.1.4zm-2.35 2.3c.5.3.95.7.95.95 0 .3-4.95 9.25-5.8 10.45-.05.1-.65-.1-1.35-.5l-1.2-.65 3.05-5.35c1.65-2.95 3.1-5.35 3.2-5.4.1 0 .6.25 1.15.5zM21.7 24.9c.1.2-.2.65-.75 1-.8.55-.95.45-.95-.4 0-.95 1.2-1.4 1.7-.6zM4.5 17.5c0 .25.25.5.5.5.3 0 .5-.25.5-.5 0-.3-.2-.5-.5-.5-.25 0-.5.2-.5.5zm2.5 0c0 .3 2 .5 5 .5s5-.2 5-.5-2-.5-5-.5-5 .2-5 .5zM4.5 21c0 .25.25.5.5.5.3 0 .5-.25.5-.5 0-.3-.2-.5-.5-.5-.25 0-.5.2-.5.5zM7 21c0 .3 2 .5 5 .5s5-.2 5-.5-2-.5-5-.5-5 .2-5 .5zm-2.5 3.5c0 .25.25.5.5.5.3 0 .5-.25.5-.5 0-.3-.2-.5-.5-.5-.25 0-.5.2-.5.5zm2.5 0c0 .3 2 .5 5 .5s5-.2 5-.5-2-.5-5-.5-5 .2-5 .5zm5.5 3.5c0 .25 1 .5 2.25.5S17 28.25 17 28c0-.3-1-.5-2.25-.5s-2.25.2-2.25.5z"/>
</symbol>
<symbol id="icon-html" viewBox="0 0 32 32">
    <path fill="#e44e25" style="fill: var(--color1, #e44e25)" d="M0 32h32v-32h-32v32z"></path>
    <path fill="#000" style="fill: var(--color2, #000)" opacity="0.1" d="M32 22.79c-2.411-2.475-10.019-11.831-10.019-11.831h-12.288l1.112 12.171 8.907 8.87h12.288v-9.21z"></path>
    <path fill="#fff" style="fill: var(--color3, #fff)" d="M10.082 6.9h0.834v0.925h0.947v-0.925h0.834v2.664h-0.834v-1.073h-0.947v1.073h-0.834v-2.664zM13.038 6.9h2.577v0.629h-0.871v2.035h-0.834v-2.035h-0.871v-0.629zM15.956 6.9h1.099l0.419 1.627 0.414-1.627h1.1v2.664h-0.682v-2.020l-0.515 2.020h-0.633l-0.52-2.020v2.020h-0.682v-2.664zM19.518 6.9h0.834v1.998h1.326v0.666h-2.16v-2.664zM15.828 18.184h-5.476l-0.66-7.225h12.256l-0.058 0.641-0.111 1.211-0.049 0.537h-9.363l0.224 2.447h8.917l-0.060 0.642-0.575 6.29-0.037 0.404-5.019 1.359-5.012-1.359-0.343-3.751h2.456l0.174 1.905 2.727 0.718 2.729-0.719 0.284-3.099h-3.005z"></path>
</symbol>
<symbol id="icon-css" viewBox="0 0 32 32">
    <path fill="#1073bb" style="fill: var(--color1, #1073bb)" d="M0 32h32v-32h-32v32z"></path>
    <path fill="#fff" style="fill: var(--color2, #fff)" d="M13.649 8.465l0.798 0.247c-0.055 0.232-0.142 0.426-0.26 0.582s-0.265 0.274-0.44 0.353c-0.175 0.079-0.398 0.119-0.669 0.119-0.329 0-0.597-0.048-0.805-0.142s-0.388-0.262-0.539-0.501c-0.151-0.239-0.227-0.545-0.227-0.917 0-0.497 0.132-0.879 0.397-1.146s0.639-0.4 1.123-0.4c0.379 0 0.677 0.078 0.894 0.234s0.378 0.395 0.483 0.718l-0.84 0.182c-0.028-0.091-0.058-0.157-0.089-0.199-0.052-0.071-0.115-0.125-0.189-0.163s-0.158-0.057-0.25-0.057c-0.209 0-0.368 0.083-0.48 0.249-0.084 0.123-0.126 0.316-0.126 0.579 0 0.326 0.052 0.549 0.157 0.67s0.251 0.181 0.44 0.181c0.184 0 0.322-0.050 0.416-0.15s0.162-0.246 0.204-0.437zM14.699 8.729l0.924-0.055c0.018 0.142 0.055 0.25 0.11 0.324 0.090 0.12 0.218 0.18 0.384 0.18 0.124 0 0.22-0.031 0.287-0.094s0.101-0.136 0.101-0.218c0-0.078-0.030-0.148-0.089-0.21s-0.214-0.121-0.461-0.176c-0.405-0.092-0.694-0.214-0.867-0.365-0.175-0.151-0.262-0.344-0.262-0.578 0-0.154 0.045-0.3 0.134-0.437s0.225-0.245 0.404-0.323c0.18-0.078 0.427-0.117 0.741-0.117 0.384 0 0.678 0.072 0.879 0.217s0.322 0.376 0.361 0.693l-0.924 0.056c-0.020-0.146-0.062-0.253-0.126-0.32s-0.153-0.1-0.265-0.1c-0.093 0-0.163 0.023-0.21 0.069-0.044 0.041-0.071 0.1-0.071 0.165 0 0.001 0 0.003 0 0.004v-0c0 0.048 0.011 0.092 0.033 0.131 0.021 0.040 0.113 0.077 0.277 0.112 0.404 0.088 0.694 0.177 0.869 0.267s0.302 0.201 0.382 0.335c0.080 0.133 0.119 0.282 0.119 0.447 0 0.193-0.053 0.372-0.16 0.535s-0.256 0.287-0.447 0.372c-0.192 0.085-0.433 0.127-0.724 0.127-0.512 0-0.866-0.098-1.063-0.293s-0.308-0.444-0.334-0.744zM17.722 8.729l0.924-0.055c0.018 0.142 0.054 0.25 0.11 0.324 0.090 0.12 0.218 0.18 0.384 0.18 0.124 0 0.22-0.031 0.287-0.094s0.101-0.136 0.101-0.218c0-0.078-0.030-0.148-0.089-0.21s-0.214-0.121-0.461-0.176c-0.406-0.092-0.695-0.214-0.867-0.365-0.174-0.151-0.262-0.344-0.262-0.578 0-0.154 0.045-0.3 0.135-0.437s0.225-0.245 0.405-0.323c0.18-0.078 0.427-0.117 0.74-0.117 0.384 0 0.678 0.072 0.88 0.217s0.322 0.376 0.361 0.693l-0.924 0.056c-0.020-0.146-0.062-0.253-0.126-0.32s-0.152-0.1-0.265-0.1c-0.093 0-0.163 0.023-0.21 0.069s-0.070 0.102-0.070 0.168c0 0.048 0.011 0.092 0.033 0.131 0.021 0.040 0.113 0.077 0.277 0.112 0.404 0.088 0.694 0.177 0.869 0.267s0.302 0.201 0.382 0.335c0.079 0.133 0.119 0.282 0.119 0.447 0 0.193-0.053 0.372-0.16 0.535s-0.256 0.287-0.448 0.372c-0.192 0.085-0.433 0.127-0.724 0.127-0.512 0-0.866-0.098-1.063-0.293s-0.308-0.444-0.334-0.744z"></path>
    <path fill="#010101" style="fill: var(--color3, #010101)" opacity="0.191" d="M32 22.808c-2.392-2.47-8.625-11.933-8.625-11.933h-12.688l-2.188 11.125 10.063 10h13.438v-9.192z"></path>
    <path fill="#fff" style="fill: var(--color2, #fff)" d="M10.716 10.875l-0.499 2.497h10.162l-0.317 1.613h-10.169l-0.493 2.497h10.162l-0.567 2.848-4.096 1.356-3.549-1.356 0.243-1.235h-2.497l-0.594 2.996 5.871 2.247 6.768-2.247 0.897-4.508 0.182-0.904 1.154-5.803h-12.659z"></path>
</symbol>
<symbol id="icon-js" viewBox="0 0 32 32">
    <path fill="#f0db4f" style="fill: var(--color1, #f0db4f)" d="M1.625 1.625h28.75v28.75h-28.75z"></path>
    <path fill="#323330" style="fill: var(--color2, #323330)" d="M17.271 24.047c0 2.798-1.643 4.075-4.037 4.075-2.163 0-3.414-1.117-4.056-2.471l2.201-1.328c0.424 0.751 0.809 1.386 1.739 1.386 0.886 0 1.45-0.346 1.45-1.701v-9.183h2.702v9.222zM23.662 28.122c-2.509 0-4.133-1.194-4.922-2.759l2.201-1.271c0.578 0.943 1.335 1.643 2.663 1.643 1.117 0 1.835-0.558 1.835-1.335 0-0.924-0.732-1.251-1.97-1.797l-0.674-0.289c-1.951-0.828-3.241-1.874-3.241-4.075 0-2.028 1.547-3.568 3.953-3.568 1.72 0 2.952 0.597 3.838 2.163l-2.105 1.348c-0.462-0.828-0.963-1.155-1.739-1.155-0.789 0-1.29 0.501-1.29 1.155 0 0.809 0.501 1.136 1.662 1.643l0.674 0.289c2.297 0.982 3.587 1.989 3.587 4.248 0 2.426-1.912 3.76-4.473 3.76z"></path>
</symbol>
<symbol id="icon-react" viewBox="0 0 32 32">
    <path fill="#61dafb" style="fill: var(--color1, #61dafb)" d="M18.325 11.875c0 1.284-1.041 2.325-2.325 2.325s-2.325-1.041-2.325-2.325c0-1.284 1.041-2.325 2.325-2.325s2.325 1.041 2.325 2.325z"></path>
    <path fill="#61dafb" style="fill: var(--color1, #61dafb)" d="M16 20.425c1.825 1.775 3.625 2.825 5.075 2.825 0.475 0 0.925-0.1 1.3-0.325 1.3-0.75 1.775-2.625 1.325-5.3-0.075-0.475-0.175-0.95-0.3-1.45 0.5-0.15 0.95-0.3 1.4-0.45 2.525-0.975 3.925-2.325 3.925-3.8 0-1.5-1.4-2.85-3.925-3.8-0.45-0.175-0.9-0.325-1.4-0.45 0.125-0.5 0.225-0.975 0.3-1.45 0.425-2.725-0.050-4.625-1.35-5.375-0.375-0.225-0.825-0.325-1.3-0.325-1.425 0-3.25 1.050-5.075 2.825-1.8-1.775-3.6-2.825-5.050-2.825-0.475 0-0.925 0.1-1.3 0.325-1.3 0.75-1.775 2.625-1.325 5.3 0.075 0.475 0.175 0.95 0.3 1.45-0.5 0.15-0.95 0.3-1.4 0.45-2.525 0.975-3.925 2.325-3.925 3.8 0 1.5 1.4 2.85 3.925 3.8 0.45 0.175 0.9 0.325 1.4 0.45-0.125 0.5-0.225 0.975-0.3 1.45-0.425 2.675 0.050 4.575 1.325 5.3 0.375 0.225 0.825 0.325 1.3 0.325 1.45 0.050 3.25-1 5.075-2.75zM14.6 17.050c0.45 0.025 0.925 0.025 1.4 0.025s0.95 0 1.4-0.025c-0.45 0.6-0.925 1.15-1.4 1.675-0.475-0.525-0.95-1.075-1.4-1.675zM11.5 14.475c0.25 0.425 0.475 0.825 0.75 1.225-0.775-0.1-1.5-0.225-2.2-0.375 0.225-0.675 0.475-1.375 0.775-2.075 0.2 0.4 0.425 0.825 0.675 1.225zM10.050 8.45c0.7-0.15 1.425-0.275 2.2-0.375-0.25 0.4-0.5 0.8-0.75 1.225s-0.475 0.825-0.675 1.25c-0.325-0.725-0.575-1.425-0.775-2.1zM11.425 11.875c0.325-0.675 0.675-1.35 1.075-2.025 0.375-0.65 0.8-1.3 1.225-1.95 0.75-0.050 1.5-0.075 2.275-0.075 0.8 0 1.55 0.025 2.275 0.075 0.45 0.65 0.85 1.3 1.225 1.95 0.4 0.675 0.75 1.35 1.075 2.025-0.325 0.675-0.675 1.35-1.075 2.025-0.375 0.65-0.8 1.3-1.225 1.95-0.75 0.050-1.5 0.075-2.275 0.075-0.8 0-1.55-0.025-2.275-0.075-0.45-0.65-0.85-1.3-1.225-1.95-0.4-0.675-0.75-1.35-1.075-2.025zM21.2 10.525l-0.675-1.25c-0.25-0.425-0.475-0.825-0.75-1.225 0.775 0.1 1.5 0.225 2.2 0.375-0.225 0.7-0.475 1.4-0.775 2.1zM21.2 13.225c0.3 0.7 0.55 1.4 0.775 2.075-0.7 0.15-1.425 0.275-2.2 0.375 0.25-0.4 0.5-0.8 0.75-1.225 0.225-0.375 0.45-0.8 0.675-1.225zM21.775 21.9c-0.2 0.125-0.45 0.175-0.725 0.175-1.225 0-2.75-1-4.25-2.5 0.725-0.775 1.425-1.65 2.125-2.625 1.175-0.1 2.3-0.275 3.35-0.525 0.125 0.45 0.2 0.9 0.275 1.35 0.35 2.125 0.075 3.65-0.775 4.125zM23.075 8.725c2.8 0.8 4.475 2.025 4.475 3.15 0 0.975-1.15 1.95-3.175 2.725-0.4 0.15-0.85 0.3-1.3 0.425-0.325-1.025-0.725-2.075-1.225-3.15 0.5-1.075 0.925-2.125 1.225-3.15zM21.075 1.675c0.275 0 0.5 0.050 0.725 0.175 0.825 0.475 1.125 1.975 0.775 4.125-0.075 0.425-0.175 0.875-0.275 1.35-1.050-0.225-2.175-0.4-3.35-0.525-0.675-0.975-1.4-1.85-2.125-2.625 1.5-1.475 3.025-2.5 4.25-2.5zM17.4 6.7c-0.45-0.025-0.925-0.025-1.4-0.025s-0.95 0-1.4 0.025c0.45-0.6 0.925-1.15 1.4-1.675 0.475 0.525 0.95 1.1 1.4 1.675zM10.225 1.85c0.2-0.125 0.45-0.175 0.725-0.175 1.225 0 2.75 1 4.25 2.5-0.725 0.775-1.425 1.65-2.125 2.625-1.175 0.1-2.3 0.275-3.35 0.525-0.125-0.45-0.2-0.9-0.275-1.35-0.35-2.125-0.075-3.625 0.775-4.125zM8.925 15.025c-2.8-0.8-4.475-2.025-4.475-3.15 0-0.975 1.15-1.95 3.175-2.725 0.4-0.15 0.85-0.3 1.3-0.425 0.325 1.025 0.725 2.075 1.225 3.15-0.5 1.075-0.925 2.15-1.225 3.15zM9.45 17.775c0.075-0.425 0.175-0.875 0.275-1.35 1.050 0.225 2.175 0.4 3.35 0.525 0.675 0.975 1.4 1.85 2.125 2.625-1.5 1.475-3.025 2.5-4.25 2.5-0.275 0-0.5-0.050-0.725-0.175-0.85-0.475-1.125-2-0.775-4.125zM8.4 28.075c0.55-0.675 0.575-1.425 0.275-2.175s-0.925-1.1-1.7-1.125c-0.925-0.025-1.875 0-2.8 0h-0.175v6.475h0.75v-2.45h1.175c0.15 0 0.275 0.050 0.35 0.175l1.5 2.325c0.025 0.050 0.1 0.125 0.15 0.125h0.975c-0.6-0.925-1.175-1.8-1.775-2.7 0.525-0.075 0.975-0.25 1.275-0.65zM4.75 28.025v-2.475h0.275c0.575 0 1.175-0.025 1.75 0.025 0.675 0.025 1.15 0.55 1.15 1.225s-0.55 1.2-1.225 1.225c-0.6 0.025-1.2 0-1.95 0zM14.425 28.35c-0.4-1.75-2-2.2-3.225-1.65-0.95 0.425-1.375 1.25-1.4 2.275-0.025 0.775 0.2 1.475 0.8 2 0.675 0.6 1.5 0.675 2.35 0.525 0.475-0.1 0.9-0.325 1.225-0.675-0.125-0.175-0.25-0.35-0.375-0.5-0.7 0.6-1.475 0.8-2.325 0.4-0.55-0.275-0.825-0.95-0.875-1.45h3.875v-0.325c0.025-0.225 0-0.425-0.050-0.6zM10.65 28.75c-0.075-0.75 0.675-1.55 1.5-1.55 0.95-0.025 1.55 0.55 1.575 1.55h-3.075zM18.325 26.575c-0.375-0.075-0.775-0.1-1.15-0.075-0.6 0.050-1.125 0.325-1.55 0.775 0.125 0.175 0.225 0.35 0.375 0.55 0.050-0.050 0.1-0.1 0.15-0.125 0.4-0.375 0.875-0.575 1.45-0.525 0.45 0.025 0.875 0.175 1 0.625 0.1 0.35 0.075 0.725 0.1 1.1-0.075 0-0.1-0.025-0.125-0.050-0.6-0.5-1.275-0.6-2-0.425-0.675 0.175-1.1 0.7-1.15 1.375-0.050 0.775 0.3 1.35 0.975 1.625 0.425 0.175 0.9 0.175 1.35 0.075 0.35-0.075 0.5-0.275 1-0.55v0.325h0.7c0-1 0.025-2.225 0-3.375 0-0.725-0.425-1.175-1.125-1.325zM18.675 29.725c-0.025 0.075 0 0.15 0 0.225 0 0.525-0.125 0.7-0.625 0.9-0.35 0.125-0.725 0.175-1.1 0.050-0.425-0.125-0.725-0.5-0.725-0.925-0.025-0.425 0.25-0.85 0.675-0.975 0.575-0.2 1.1-0.075 1.575 0.275 0.15 0.125 0.25 0.25 0.2 0.45zM22.575 27.25c0.65-0.2 1.25-0.075 1.7 0.475l0.075 0.050c0.175-0.15 0.325-0.3 0.525-0.475-0.075-0.075-0.1-0.125-0.15-0.2-0.725-0.775-2.15-0.875-3.025-0.25-1.225 0.9-1.2 2.65-0.6 3.575 0.575 0.875 1.4 1.175 2.375 1.050 0.575-0.075 1.050-0.35 1.425-0.825-0.175-0.15-0.35-0.3-0.525-0.475-0.050 0.050-0.075 0.075-0.1 0.125-0.675 0.75-1.8 0.675-2.4-0.125-0.35-0.475-0.425-1.025-0.325-1.575 0.050-0.625 0.375-1.125 1.025-1.35zM27.775 30.65c-0.050 0.025-0.075 0.050-0.075 0.050-0.2 0.15-0.4 0.175-0.625 0.1-0.225-0.1-0.25-0.3-0.275-0.5v-2.85c0-0.050 0 0.050 0.025-0.2h0.95v-0.75h-1v-1.25h-0.75v1.35h-0.65c-0.050 0-0.125 0.050-0.125 0.1-0.025 0.175 0 0.3 0 0.55h0.8v3.2c0 0.4 0.1 0.75 0.45 0.95 0.375 0.225 1.1 0.175 1.425-0.1 0.050-0.025 0.075-0.125 0.075-0.15-0.075-0.15-0.15-0.325-0.225-0.5z"></path>
</symbol>
<symbol id="icon-node" viewBox="0 0 40 32">
    <path fill="#5bec56" style="fill: var(--color1, #5bec56)" d="M19.769 28.25c-0.131 0-0.262-0.038-0.381-0.1l-1.2-0.712c-0.181-0.1-0.094-0.137-0.031-0.156 0.238-0.081 0.288-0.1 0.544-0.25 0.025-0.012 0.063-0.006 0.087 0.006l0.925 0.55c0.031 0.019 0.081 0.019 0.113 0l3.613-2.087c0.031-0.019 0.056-0.056 0.056-0.1v-4.169c0-0.044-0.019-0.081-0.056-0.1l-3.613-2.081c-0.031-0.019-0.075-0.019-0.113 0l-3.613 2.081c-0.038 0.019-0.056 0.063-0.056 0.1v4.169c0 0.038 0.025 0.075 0.056 0.094l0.988 0.569c0.538 0.269 0.869-0.050 0.869-0.363v-4.119c0-0.056 0.044-0.106 0.106-0.106h0.456c0.056 0 0.106 0.044 0.106 0.106v4.119c0 0.719-0.387 1.125-1.069 1.125-0.206 0-0.375 0-0.831-0.225l-0.95-0.544c-0.231-0.137-0.381-0.387-0.381-0.656v-4.169c0-0.269 0.144-0.525 0.381-0.656l3.613-2.087c0.231-0.131 0.531-0.131 0.756 0l3.613 2.087c0.231 0.137 0.381 0.387 0.381 0.656v4.169c0 0.269-0.144 0.525-0.381 0.656l-3.613 2.087c-0.106 0.069-0.238 0.106-0.375 0.106zM22.688 24.137c0-0.781-0.525-0.988-1.637-1.137-1.125-0.15-1.238-0.225-1.238-0.488 0-0.219 0.094-0.506 0.925-0.506 0.744 0 1.019 0.163 1.131 0.663 0.012 0.050 0.050 0.081 0.1 0.081h0.469c0.031 0 0.056-0.012 0.075-0.031 0.019-0.025 0.031-0.050 0.025-0.081-0.075-0.863-0.644-1.262-1.8-1.262-1.031 0-1.644 0.438-1.644 1.163 0 0.794 0.613 1.006 1.6 1.106 1.181 0.119 1.275 0.288 1.275 0.519 0 0.406-0.325 0.575-1.087 0.575-0.956 0-1.169-0.238-1.238-0.712-0.006-0.050-0.050-0.087-0.106-0.087h-0.469c-0.056 0-0.106 0.044-0.106 0.106 0 0.606 0.331 1.331 1.913 1.331 1.156 0 1.813-0.45 1.813-1.238zM26.094 21.006c0 0.381-0.313 0.694-0.694 0.694s-0.694-0.313-0.694-0.694c0-0.394 0.325-0.694 0.694-0.694 0.375-0.006 0.694 0.3 0.694 0.694zM25.981 21.006c0-0.325-0.262-0.581-0.587-0.581-0.319 0-0.581 0.256-0.581 0.581s0.262 0.587 0.581 0.587c0.325-0.006 0.587-0.269 0.587-0.587zM25.7 21.394h-0.163c-0.006-0.038-0.031-0.238-0.031-0.244-0.012-0.044-0.025-0.069-0.081-0.069h-0.137v0.313h-0.15v-0.781h0.269c0.094 0 0.275 0 0.275 0.206 0 0.144-0.094 0.175-0.15 0.194 0.106 0.006 0.113 0.075 0.131 0.175 0.006 0.063 0.019 0.169 0.038 0.206zM25.525 20.844c0-0.106-0.075-0.106-0.113-0.106h-0.125v0.219h0.119c0.1 0 0.119-0.069 0.119-0.113zM8.581 11.938c0-0.169-0.088-0.319-0.231-0.4l-3.831-2.206c-0.063-0.037-0.138-0.056-0.213-0.063h-0.037c-0.075 0-0.144 0.025-0.213 0.063l-3.825 2.206c-0.144 0.081-0.231 0.238-0.231 0.4l0.006 5.937c0 0.081 0.044 0.156 0.113 0.2s0.156 0.044 0.231 0l2.275-1.306c0.144-0.087 0.231-0.238 0.231-0.4v-2.775c0-0.162 0.087-0.319 0.231-0.4l0.969-0.556c0.075-0.044 0.15-0.063 0.231-0.063s0.162 0.019 0.231 0.063l0.969 0.556c0.144 0.081 0.231 0.238 0.231 0.4v2.775c0 0.163 0.088 0.319 0.231 0.4l2.275 1.306c0.069 0.044 0.162 0.044 0.231 0 0.069-0.038 0.113-0.119 0.113-0.2l0.012-5.938zM29.531 5.456v11.025c0 0.163-0.087 0.319-0.231 0.4l-3.831 2.212c-0.144 0.081-0.319 0.081-0.462 0l-3.831-2.212c-0.144-0.081-0.231-0.238-0.231-0.4v-4.425c0-0.162 0.087-0.319 0.231-0.4l3.831-2.213c0.144-0.081 0.319-0.081 0.462 0l0.956 0.55c0.106 0.063 0.244-0.019 0.244-0.137v-5.875c0-0.175 0.188-0.288 0.344-0.2l2.281 1.275c0.144 0.075 0.238 0.231 0.238 0.4zM26.656 13.512c0-0.044-0.025-0.081-0.056-0.1l-1.313-0.762c-0.038-0.019-0.081-0.019-0.119 0l-1.313 0.762c-0.038 0.019-0.056 0.056-0.056 0.1v1.519c0 0.044 0.025 0.081 0.056 0.1l1.313 0.756c0.038 0.019 0.081 0.019 0.113 0l1.313-0.756c0.038-0.019 0.056-0.056 0.056-0.1v-1.519zM39.769 13.469c0.144-0.081 0.231-0.238 0.231-0.4v-1.069c0-0.162-0.087-0.319-0.231-0.4l-3.806-2.213c-0.144-0.081-0.319-0.081-0.462 0l-3.831 2.213c-0.144 0.081-0.231 0.238-0.231 0.4v4.425c0 0.169 0.087 0.319 0.231 0.4l3.806 2.169c0.138 0.081 0.313 0.081 0.456 0l2.3-1.281c0.156-0.087 0.156-0.313 0-0.4l-3.856-2.213c-0.075-0.044-0.119-0.119-0.119-0.2v-1.387c0-0.081 0.044-0.156 0.119-0.2l1.2-0.694c0.069-0.044 0.163-0.044 0.231 0l1.2 0.694c0.069 0.044 0.119 0.119 0.119 0.2v1.088c0 0.175 0.194 0.287 0.35 0.2l2.294-1.331zM34.938 13.688c-0.025 0.019-0.044 0.044-0.044 0.075v0.85c0 0.031 0.019 0.063 0.044 0.075l0.737 0.425c0.025 0.019 0.063 0.019 0.087 0l0.737-0.425c0.025-0.019 0.044-0.044 0.044-0.075v-0.85c0-0.031-0.019-0.063-0.044-0.075l-0.737-0.425c-0.025-0.019-0.063-0.019-0.087 0l-0.737 0.425zM19.050 16.406v-4.4c0-0.162-0.1-0.319-0.244-0.4l-3.819-2.2c-0.131-0.075-0.313-0.088-0.463 0l-3.819 2.2c-0.144 0.081-0.244 0.231-0.244 0.4v4.4c0 0.175 0.119 0.325 0.25 0.4l3.825 2.2c0.15 0.087 0.325 0.081 0.463 0l3.812-2.2c0.113-0.063 0.194-0.169 0.225-0.294 0.006-0.031 0.012-0.069 0.012-0.106zM14.406 8.6l-0.050 0.031h0.069l-0.019-0.031zM19.169 16.738l-0.025-0.044v0.056l0.025-0.012z"></path>
</symbol>
<symbol id="icon-link-chain" viewBox="0 0 32 32">
    <path d="M13 22h-4c-3.314 0-6-2.686-6-6s2.686-6 6-6v0h3v2h-3c-2.209 0-4 1.791-4 4s1.791 4 4 4v0h4c2.209 0 4-1.791 4-4v0h2c0 3.314-2.686 6-6 6v0z"></path>
    <path d="M23 22h-3v-2h3c2.209 0 4-1.791 4-4s-1.791-4-4-4v0h-4c-2.209 0-4 1.791-4 4v0h-2c0-3.314 2.686-6 6-6v0h4c3.314 0 6 2.686 6 6s-2.686 6-6 6v0z"></path>
</symbol>
</defs>
</svg>