<svg aria-hidden="true" style="position: absolute; width: 0; height: 0; overflow: hidden;" version="1.1" xmlns="http://www.w3.org/2000/svg" xmlns:xlink="http://www.w3.org/1999/xlink">
<defs>
<symbol id="icon-github" viewBox="0 0 32 32">
    <path d="M16 0c-8.84 0-16 7.16-16 16 0 7.080 4.58 13.060 10.94 15.18 0.8 0.14 1.1-0.34 1.1-0.76 0-0.38-0.020-1.64-0.020-2.98-4.020 0.74-5.060-0.98-5.38-1.88-0.18-0.46-0.96-1.88-1.64-2.26-0.56-0.3-1.36-1.040-0.020-1.060 1.26-0.020 2.16 1.16 2.46 1.64 1.44 2.42 3.74 1.74 4.66 1.32 0.14-1.040 0.56-1.74 1.020-2.14-3.56-0.4-7.28-1.78-7.28-7.9 0-1.74 0.62-3.18 1.64-4.3-0.16-0.4-0.72-2.040 0.16-4.24 0 0 1.34-0.42 4.4 1.64 1.28-0.36 2.64-0.54 4-0.54s2.72 0.18 4 0.54c3.060-2.080 4.4-1.64 4.4-1.64 0.88 2.2 0.32 3.84 0.16 4.24 1.020 1.12 1.64 2.54 1.64 4.3 0 6.14-3.74 7.5-7.3 7.9 0.58 0.5 1.080 1.46 1.080 2.96 0 2.14-0.020 3.86-0.020 4.4 0 0.42 0.3 0.92 1.1 0.76 3.176-1.072 5.936-3.114 7.892-5.837s3.007-5.991 3.008-9.343c0-8.84-7.16-16-16-16z"></path>
</symbol>
<symbol id="icon-linkedin" viewBox="0 0 32 32">
    <path d="M16 0.64c-8.483 0-15.36 6.877-15.36 15.36s6.877 15.36 15.36 15.36c8.483 0 15.36-6.877 15.36-15.36s-6.877-15.36-15.36-15.36zM12.24 22.366h-3.11v-10.010h3.11v10.010zM10.666 11.128c-0.982 0-1.618-0.696-1.618-1.557 0-0.878 0.654-1.554 1.658-1.554s1.618 0.675 1.637 1.554c0 0.861-0.634 1.557-1.677 1.557zM23.6 22.366h-3.11v-5.547c0-1.291-0.451-2.168-1.576-2.168-0.859 0-1.37 0.594-1.595 1.165-0.083 0.203-0.104 0.491-0.104 0.778v5.771h-3.112v-6.816c0-1.25-0.040-2.294-0.082-3.194h2.702l0.142 1.39h0.062c0.41-0.653 1.413-1.616 3.091-1.616 2.046 0 3.581 1.371 3.581 4.318v5.918z"></path>
</symbol>
<symbol id="icon-hamburger-menu" viewBox="0 0 32 32">
    <path d="M0 4.8V8h32V4.8zm0 9.6v3.2h32v-3.2zM0 24v3.2h32V24z"/></symbol>
<symbol id="icon-envelope" viewBox="0 0 43 32">
    <path d="M38.667 0H4C1.795 0 0 1.795 0 4v24c0 2.205 1.795 4 4 4h34.667c2.205 0 4-1.795 4-4V4c0-2.205-1.795-4-4-4zm0 2.667c.181 0 .355.037.512.104L21.334 18.238 3.489 2.771c.151-.065.327-.104.512-.104h34.667zm0 26.666H4A1.333 1.333 0 0 1 2.667 28V5.587l17.792 15.421c.233.203.539.327.875.327s.642-.124.876-.328l-.002.001L40 5.587V28c0 .736-.597 1.333-1.333 1.333z"/>
</symbol>
<symbol id="icon-smartphone" viewBox="0 0 20 32">
    <path d="M17 0H3C1.346 0 0 1.346 0 3v26c0 1.654 1.346 3 3 3h14c1.654 0 3-1.346 3-3V3c0-1.654-1.346-3-3-3zM3 2h14a1 1 0 0 1 1 1v21H2V3a1 1 0 0 1 1-1zm14 28H3a1 1 0 0 1-1-1v-3h16v3a1 1 0 0 1-1 1z"/>
    <path fill="#757575" style="fill:var(--color5, #757575)" d="M4.708 27.478a.889.889 0 0 1 .001 1.319l-.001.001a1.048 1.048 0 0 1-1.417 0l.001.001a.889.889 0 0 1-.001-1.319l.001-.001a1.048 1.048 0 0 1 1.417 0l-.001-.001z"/>
</symbol>
<symbol id="icon-close-menu" viewBox="0 0 32 32">
    <path d="M31.439 3.166l-3.166-3.166-12.554 12.552-12.552-12.552-3.166 3.166 12.552 12.552-12.552 12.554 3.166 3.166 12.552-12.554 12.554 12.554 3.166-3.166-12.554-12.554 12.554-12.552z"></path>
</symbol>
<symbol id="icon-office" viewBox="0 0 16 12">
    <path d="M3.333 1.5v9h4V8.75h1.334v1.75h4v-9H3.333Zm1.334 1H6v1H4.667v-1Zm2.666 0h1.334v1H7.333v-1ZM10 2.5h1.333v1H10v-1Zm-5.333 2H6v1H4.667v-1Zm2.666 0h1.334v1H7.333v-1ZM10 4.5h1.333v1H10v-1Zm-5.333 2H6v1H4.667v-1Zm2.666 0h1.334v1H7.333v-1ZM10 6.5h1.333v1H10v-1Zm-5.333 2H6v1H4.667v-1ZM10 8.5h1.333v1H10v-1Z" fill="#A7A7A7"/>
</symbol>
<symbol id="icon-location" viewBox="0 0 16 12">
    <path d="M8 6.75c-.494 0-.978-.11-1.389-.316-.411-.206-.731-.499-.92-.841a1.445 1.445 0 0 1-.143-1.084c.096-.364.335-.698.684-.96.35-.262.795-.44 1.28-.513a3.281 3.281 0 0 1 1.445.107c.457.142.847.382 1.122.69.274.309.421.671.421 1.042 0 .497-.264.974-.733 1.325-.469.352-1.104.55-1.767.55Zm0-3c-.297 0-.587.066-.833.19-.247.123-.44.299-.553.504a.867.867 0 0 0-.085.65c.058.219.2.42.41.576.21.158.477.265.768.308.291.044.593.022.867-.064.274-.085.508-.229.673-.414a.939.939 0 0 0 .253-.625c0-.298-.159-.584-.44-.795A1.786 1.786 0 0 0 8 3.75Z" fill="#A7A7A7"/>
    <path d="M8 11.25 3.782 7.52a14.363 14.363 0 0 1-.174-.17c-.72-.712-1.11-1.581-1.108-2.475 0-1.094.58-2.143 1.61-2.917C5.143 1.185 6.542.75 8 .75s2.858.435 3.89 1.208c1.03.774 1.61 1.823 1.61 2.917.002.893-.387 1.762-1.107 2.474l-.001.001s-.15.148-.172.168L8 11.25ZM4.406 6.898c.001 0 .117.116.144.14L8 10.091l3.455-3.057c.022-.02.139-.137.14-.137.588-.582.906-1.292.905-2.022 0-.895-.474-1.754-1.318-2.386C10.338 1.856 9.193 1.5 8 1.5c-1.193 0-2.338.356-3.182.989C3.974 3.12 3.5 3.979 3.5 4.875c-.001.73.317 1.441.907 2.023h-.001Z" fill="#A7A7A7"/>
</symbol>
<symbol id="icon-calendar" viewBox="0 0 16 12">
    <path d="M5.333 6.5a.793.793 0 0 1-.471-.146A.447.447 0 0 1 4.667 6c0-.133.07-.26.195-.354a.793.793 0 0 1 .471-.146c.177 0 .347.053.472.146C5.93 5.74 6 5.867 6 6c0 .133-.07.26-.195.354a.793.793 0 0 1-.472.146Zm0 2a.793.793 0 0 1-.471-.146A.447.447 0 0 1 4.667 8c0-.133.07-.26.195-.354a.793.793 0 0 1 .471-.146c.177 0 .347.053.472.146C5.93 7.74 6 7.867 6 8c0 .133-.07.26-.195.354a.793.793 0 0 1-.472.146Zm2-.5c0 .133.07.26.196.354A.793.793 0 0 0 8 8.5a.793.793 0 0 0 .471-.146A.447.447 0 0 0 8.667 8c0-.133-.07-.26-.196-.354A.793.793 0 0 0 8 7.5a.793.793 0 0 0-.471.146.447.447 0 0 0-.196.354Zm3.334.5a.793.793 0 0 1-.472-.146A.447.447 0 0 1 10 8c0-.133.07-.26.195-.354a.793.793 0 0 1 .472-.146c.176 0 .346.053.471.146.125.094.195.221.195.354 0 .133-.07.26-.195.354a.793.793 0 0 1-.471.146ZM7.333 6c0 .133.07.26.196.354A.793.793 0 0 0 8 6.5a.793.793 0 0 0 .471-.146A.447.447 0 0 0 8.667 6c0-.133-.07-.26-.196-.354A.793.793 0 0 0 8 5.5a.793.793 0 0 0-.471.146.447.447 0 0 0-.196.354Zm3.334.5a.793.793 0 0 1-.472-.146A.447.447 0 0 1 10 6c0-.133.07-.26.195-.354a.793.793 0 0 1 .472-.146c.176 0 .346.053.471.146.125.094.195.221.195.354 0 .133-.07.26-.195.354a.793.793 0 0 1-.471.146Zm-5.334-3a.793.793 0 0 0-.471.146.447.447 0 0 0-.195.354c0 .133.07.26.195.354a.793.793 0 0 0 .471.146h5.334a.793.793 0 0 0 .471-.146.447.447 0 0 0 .195-.354c0-.133-.07-.26-.195-.354a.793.793 0 0 0-.471-.146H5.333Z" fill="#A7A7A7"/>
    <path fill-rule="evenodd" clip-rule="evenodd" d="M4 1.5c-.53 0-1.04.158-1.414.44C2.21 2.22 2 2.601 2 3v6c0 .398.21.78.586 1.06.375.282.884.44 1.414.44h8c.53 0 1.04-.158 1.414-.44C13.79 9.78 14 9.399 14 9V3c0-.398-.21-.78-.586-1.06-.375-.282-.884-.44-1.414-.44H4Zm8 1H4a.793.793 0 0 0-.471.146.447.447 0 0 0-.196.354v6c0 .133.07.26.196.354A.793.793 0 0 0 4 9.5h8a.793.793 0 0 0 .471-.146.447.447 0 0 0 .196-.354V3c0-.133-.07-.26-.196-.354A.793.793 0 0 0 12 2.5Z" fill="#A7A7A7"/>
</symbol>
<symbol id="icon-cv" viewBox="0 0 32 32">
    <path d="M.6.6c-.85.85-.85 29.95 0 30.8s24.45.85 25.3 0c.7-.7.8-6.4.1-6.4-.55 0-.9 1.35-1.1 4l-.15 1.75h-23V1.25h23l.25 3.7c.15 2.35.5 3.8.9 3.95.85.25.85-7.45 0-8.3S1.45-.25.6.6z"/>
    <path d="M10.2 4.45c-4.05 2.45-3.1 8.5 1.55 10.05 2.85.95 6.45-1.25 7.05-4.25.9-4.85-4.35-8.4-8.6-5.8zm6.2 1.65c1.05 1.05 1.6 4.25.8 5.05-.7.7-2-.8-1.8-2.15.25-1.9-1.6-3.3-3.15-2.3-.6.4-1 1.2-1 2.1 0 1.4-1.1 2.85-1.85 2.4-.25-.15-.4-1.1-.4-2.15 0-3.95 4.4-5.7 7.4-2.95zm-2.5 2.5c-.1.65-.35 1.15-.65 1.15-.25 0-.55-.5-.65-1.15-.1-.75.1-1.1.65-1.1s.75.35.65 1.1zm1.5 3.55c.9.7-.15 1.35-2.15 1.35s-3.05-.65-2.15-1.35c1.4-1.15 2.85-1.15 4.3 0zm12.1-3.4c-.35.45-2.4 3.8-4.5 7.45-2.95 5.1-3.9 7.25-4.15 9.2-.15 1.45-.1 2.7.2 2.85.25.2 1.35-.3 2.45-1.1 1.55-1.05 3.05-3.2 6.35-8.85 3.75-6.45 4.25-7.6 3.85-8.75-.55-1.6-3.15-2.1-4.2-.8zm2.9 1.45c.3 1.45-.65 2-1.9 1.15-1-.7-1-.8-.2-1.55.95-1 1.9-.8 2.1.4zm-2.35 2.3c.5.3.95.7.95.95 0 .3-4.95 9.25-5.8 10.45-.05.1-.65-.1-1.35-.5l-1.2-.65 3.05-5.35c1.65-2.95 3.1-5.35 3.2-5.4.1 0 .6.25 1.15.5zM21.7 24.9c.1.2-.2.65-.75 1-.8.55-.95.45-.95-.4 0-.95 1.2-1.4 1.7-.6zM4.5 17.5c0 .25.25.5.5.5.3 0 .5-.25.5-.5 0-.3-.2-.5-.5-.5-.25 0-.5.2-.5.5zm2.5 0c0 .3 2 .5 5 .5s5-.2 5-.5-2-.5-5-.5-5 .2-5 .5zM4.5 21c0 .25.25.5.5.5.3 0 .5-.25.5-.5 0-.3-.2-.5-.5-.5-.25 0-.5.2-.5.5zM7 21c0 .3 2 .5 5 .5s5-.2 5-.5-2-.5-5-.5-5 .2-5 .5zm-2.5 3.5c0 .25.25.5.5.5.3 0 .5-.25.5-.5 0-.3-.2-.5-.5-.5-.25 0-.5.2-.5.5zm2.5 0c0 .3 2 .5 5 .5s5-.2 5-.5-2-.5-5-.5-5 .2-5 .5zm5.5 3.5c0 .25 1 .5 2.25.5S17 28.25 17 28c0-.3-1-.5-2.25-.5s-2.25.2-2.25.5z"/>
</symbol>
</defs>
</svg>